<?xml version="1.0" encoding="utf-8"?>
<!-- Generator: Adobe Illustrator 16.0.0, SVG Export Plug-In . SVG Version: 6.00 Build 0)  -->
<!DOCTYPE svg PUBLIC "-//W3C//DTD SVG 1.1//EN" "http://www.w3.org/Graphics/SVG/1.1/DTD/svg11.dtd">
<svg version="1.1" id="Layer_1" xmlns="http://www.w3.org/2000/svg" xmlns:xlink="http://www.w3.org/1999/xlink" x="0px" y="0px"
	 width="1000px" height="1000px" viewBox="0 0 1000 1000" enable-background="new 0 0 1000 1000" xml:space="preserve">
<path fill-rule="evenodd" clip-rule="evenodd" fill="#252525" d="M261.597,415.903c79.051-79.055,158.033-158.04,237.076-237.087
	c0,0.87,0,1.872,0,2.874c0,18.755-0.034,37.511,0.047,56.266c0.009,2.171-0.602,3.684-2.148,5.229
	c-56.808,56.73-113.56,113.516-170.382,170.231c-1.874,1.87-2.113,2.747-0.085,4.77c56.43,56.296,112.789,112.664,169.097,169.081
	c1.698,1.702,2.437,1.664,4.107-0.009c52.117-52.219,104.307-104.365,156.418-156.589c1.871-1.875,2.786-1.782,4.566,0.035
	c8.971,9.16,18.05,18.217,27.193,27.206c1.532,1.505,1.524,2.22-0.01,3.752c-62.771,62.676-125.493,125.399-188.177,188.161
	c-1.527,1.529-2.258,1.673-3.883,0.045c-77.496-77.59-155.046-155.125-232.589-232.669
	C262.291,416.662,261.781,416.098,261.597,415.903z"/>
<path fill-rule="evenodd" clip-rule="evenodd" fill="#252525" d="M515.313,490.932c-0.642,0-1.283,0-1.924,0
	c-19.52,0-39.039-0.02-58.559,0.035c-1.659,0.005-2.815-0.464-3.993-1.645c-23.716-23.78-47.452-47.539-71.274-71.212
	c-1.687-1.676-1.204-2.369,0.162-3.732c23.839-23.792,47.632-47.628,71.433-71.458c19.473-19.497,38.98-38.961,58.354-58.555
	c1.901-1.923,2.701-1.556,4.335,0.107c9.058,9.209,18.181,18.355,27.413,27.388c1.607,1.573,1.407,2.253-0.05,3.707
	c-32.791,32.702-65.515,65.471-98.314,98.164c-1.622,1.616-1.826,2.365-0.074,4.107c23.751,23.609,47.407,47.314,71.097,70.985
	c0.533,0.533,1.188,0.943,1.787,1.412C515.574,490.466,515.442,490.699,515.313,490.932z"/>
<path fill-rule="evenodd" clip-rule="evenodd" fill="#252525" d="M599.361,280.527c0.798,1.211,1.165,2.036,1.761,2.632
	c25.897,25.933,51.814,51.845,77.729,77.76c17.524,17.525,35.023,35.075,52.611,52.536c1.646,1.634,1.826,2.441,0.061,4.168
	c-9.303,9.099-18.498,18.31-27.606,27.603c-1.62,1.652-2.413,1.527-3.967-0.029c-43.532-43.618-87.106-87.193-130.729-130.722
	c-1.38-1.376-1.254-1.979,0.031-3.249c9.46-9.349,18.844-18.777,28.234-28.196C598.02,282.496,598.404,281.816,599.361,280.527z"/>
<path fill-rule="evenodd" clip-rule="evenodd" fill="#2A2A2A" d="M208.724,742.649c7.27,0,14.54,0.044,21.809-0.026
	c2.211-0.021,3.023,0.558,2.728,3.007c-2.232,18.499-18.667,32.528-37.82,32.136c-18.44-0.378-33.606-11.811-37.546-28.301
	c-5.761-24.12,13.166-46.859,38.048-45.802c10.618,0.452,20.004,3.681,27.493,11.515c2.13,2.229,3.755,4.792,5.078,7.575
	c0.797,1.679,0.49,2.554-1.469,2.571c-0.478,0.004-0.966-0.063-1.433,0.011c-3.8,0.604-6.189-0.791-8.755-3.942
	c-7.489-9.199-17.827-11.125-28.807-8.52c-11.658,2.767-19.169,10.327-21.634,22.253c-2.928,14.17,4.855,27.652,18.52,32.53
	c13.855,4.947,29.682-0.67,36.245-12.861c2.144-3.982,2.144-3.982-2.28-3.982c-10.426,0-20.853,0.002-31.279-0.001
	c-3.74-0.001-3.74-0.005-3.743-3.871c0-0.287,0.035-0.578-0.005-0.86c-0.37-2.585,0.601-3.554,3.331-3.488
	C194.373,742.763,201.55,742.649,208.724,742.649z"/>
<path fill-rule="evenodd" clip-rule="evenodd" fill="#252525" d="M555.991,238.181c0.465,0.423,0.896,0.782,1.292,1.177
	c9.676,9.67,19.338,19.354,29.041,28.998c0.929,0.923,1.104,1.46,0.071,2.485c-9.78,9.701-19.515,19.449-29.229,29.216
	c-0.847,0.85-1.346,0.994-2.274,0.058c-9.774-9.842-19.581-19.653-29.425-29.426c-1-0.993-0.614-1.491,0.166-2.268
	c9.758-9.723,19.492-19.471,29.235-29.209C555.202,238.877,555.564,238.571,555.991,238.181z"/>
<path fill-rule="evenodd" clip-rule="evenodd" fill="#2A2A2A" d="M595.928,760.594c0-17.958-0.001-35.072,0.001-52.186
	c0-3.624,0.023-3.65,3.702-3.652c5.761-0.001,5.233-0.493,5.234,5.246c0.003,21.041-0.046,42.082,0.058,63.123
	c0.014,2.769-0.823,3.455-3.563,3.647c-3.724,0.261-5.768-1.108-7.795-4.157c-11.625-17.484-23.487-34.811-35.274-52.188
	c-0.518-0.764-1.08-1.495-1.795-2.479c-0.65,1.193-0.42,2.235-0.421,3.208c-0.019,17.215-0.014,34.43-0.018,51.645
	c-0.001,3.835-0.007,3.836-3.772,3.836c-0.765,0-1.534-0.052-2.294,0.008c-2.031,0.16-2.904-0.584-2.897-2.777
	c0.058-22.093,0.054-44.186-0.003-66.278c-0.006-2.128,0.748-2.828,2.834-2.871c8.014-0.163,8.012-0.216,12.506,6.429
	c10.535,15.57,21.072,31.142,31.608,46.712C594.504,758.546,594.982,759.226,595.928,760.594z"/>
<path fill-rule="evenodd" clip-rule="evenodd" fill="#2A2A2A" d="M629.804,740.765c0-10.902,0.068-21.806-0.052-32.706
	c-0.026-2.497,0.705-3.407,3.245-3.343c9.072,0.229,18.162-0.328,27.211,0.847c19.441,2.525,31.781,17.299,30.709,36.838
	c-1.043,19.012-11.758,30.598-30.879,33.433c-9.325,1.383-18.708,0.607-28.064,0.813c-2.051,0.045-2.19-1.29-2.186-2.888
	C629.818,762.761,629.804,751.763,629.804,740.765z M638.742,740.715c0,8.414,0.083,16.829-0.056,25.24
	c-0.037,2.228,0.67,2.755,2.755,2.649c4.771-0.241,9.564-0.087,14.327-0.416c11.23-0.775,19.931-5.487,24.355-16.416
	c1.866-4.609,2.188-9.45,1.851-14.35c-0.751-10.925-8.398-20.274-18.907-22.973c-7.486-1.921-15.165-1.535-22.8-1.622
	c-1.921-0.021-1.514,1.294-1.516,2.358C638.734,723.696,638.742,732.205,638.742,740.715z"/>
<path fill-rule="evenodd" clip-rule="evenodd" fill="#2A2A2A" d="M742.4,750.174c0.227,1.416,1.143,2.179,1.798,3.064
	c5.002,6.755,10.047,13.479,15.065,20.221c0.548,0.735,1.427,1.407,0.817,2.52c-0.538,0.983-1.512,0.541-2.314,0.678
	c-5.041,0.861-8.33-1.01-11.26-5.399c-5.72-8.571-12.183-16.644-18.291-24.958c-0.498-0.677-1.516-1.197-1.02-2.427
	c0.59-1.463,1.779-0.832,2.699-0.85c4.786-0.095,9.55-0.347,14.172-1.718c5.601-1.66,8.208-4.905,8.598-10.731
	c0.114-1.709,0.105-3.438,0.001-5.149c-0.317-5.213-3.002-8.74-7.88-10.524c-7.185-2.63-14.697-1.959-22.124-2.022
	c-1.949-0.017-1.205,1.646-1.208,2.596c-0.046,14.923-0.032,29.844-0.032,44.767c0,4.495-0.095,8.994,0.039,13.486
	c0.068,2.285-0.78,3.001-3.009,2.962c-6.911-0.119-5.954,0.479-5.961-6.019c-0.021-20.852,0.037-41.704-0.062-62.557
	c-0.014-2.704,0.894-3.478,3.481-3.399c8.688,0.261,17.397-0.385,26.057,0.904c10.369,1.545,16.938,6.826,19.034,15.592
	c1.059,4.427,1.131,8.918,0.052,13.353C758.95,743.211,752.701,748.442,742.4,750.174z"/>
<path fill-rule="evenodd" clip-rule="evenodd" fill="#2A2A2A" d="M810.774,704.93c3.91-1.312,5.136,1.06,6.475,4.215
	c9.076,21.371,18.348,42.658,27.554,63.974c1.376,3.188,1.148,3.515-2.42,3.531c-5.807,0.029-5.805,0.028-8.117-5.362
	c-2.327-5.422-4.719-10.816-6.951-16.276c-0.61-1.491-1.414-1.947-2.978-1.936c-9.085,0.069-18.171,0.091-27.255-0.015
	c-1.78-0.021-2.475,0.711-3.1,2.185c-2.714,6.396-5.595,12.719-8.263,19.133c-0.734,1.768-1.645,2.338-3.573,2.33
	c-7.791-0.034-6.947,0.062-4.153-6.474c8.757-20.473,17.639-40.891,26.331-61.39C805.634,705.756,807.073,703.724,810.774,704.93z
	 M822.834,744.82c-3.999-9.55-7.908-18.885-12.044-28.762c-4.205,9.828-8.212,19.193-12.306,28.762
	C806.744,744.82,814.635,744.82,822.834,744.82z"/>
<path fill-rule="evenodd" clip-rule="evenodd" fill="#2A2A2A" d="M305.151,732.539c-0.149,6.532,0.251,14.38-0.303,22.22
	c-0.841,11.927-7.723,20.657-18.845,22.446c-16.582,2.668-28.225-4.887-30.132-22.211c-0.326-2.959-0.429-5.91-0.427-8.877
	c0.006-12.631,0.064-25.263-0.048-37.893c-0.023-2.573,0.636-3.606,3.369-3.521c6.249,0.193,5.575-0.564,5.625,5.492
	c0.117,14.447-0.35,28.899,0.249,43.34c0.409,9.87,6.045,15.774,14.841,15.877c10.794,0.125,16.54-5.8,16.666-17.631
	c0.154-14.352,0.057-28.707,0.067-43.061c0.002-3.962,0.001-3.962,3.967-3.966c0.67-0.001,1.347,0.063,2.009-0.012
	c2.24-0.253,3.032,0.674,3.002,2.946C305.087,715.535,305.151,723.382,305.151,732.539z"/>
<path fill-rule="evenodd" clip-rule="evenodd" fill="#2A2A2A" d="M347.216,777.697c-12.524-0.199-21.712-8.397-22.469-19.925
	c-0.129-1.972,0.313-2.887,2.431-2.746c2.001,0.132,4.237-0.483,5.961,0.225c1.851,0.761,1.051,3.36,1.674,5.093
	c2.494,6.934,9.177,10.617,16.207,8.744c6.939-1.848,10.873-8.517,9.319-15.827c-0.79-3.716-3.356-5.851-6.611-7.377
	c-4.421-2.073-9.207-3.052-13.792-4.633c-5.816-2.004-10.239-5.412-12.207-11.491c-4.456-13.768,5.513-26.744,20.045-26.07
	c11.249,0.521,19.154,7.677,19.7,17.67c0.128,2.345-0.502,3.486-2.979,3.173c-0.565-0.071-1.157-0.079-1.72,0.001
	c-2.985,0.426-4.466-0.415-4.734-3.849c-0.333-4.262-4.146-7.642-8.546-8.548c-4.842-0.996-9.579,0.85-12.059,4.697
	c-2.386,3.702-2.415,9.045-0.074,12.465c1.428,2.087,3.57,3.117,5.855,3.89c4.056,1.37,8.163,2.599,12.192,4.044
	c11.964,4.289,15.143,14.092,13.56,23.511C367.25,770.972,358.097,777.87,347.216,777.697z"/>
<path fill-rule="evenodd" clip-rule="evenodd" fill="#2A2A2A" d="M407.538,744.432c0,9.566-0.079,19.134,0.052,28.698
	c0.035,2.57-0.61,3.607-3.357,3.508c-6.274-0.226-5.563,0.677-5.576-5.497c-0.041-18.463-0.079-36.927,0.016-55.389
	c0.012-2.421-0.669-3.1-3.031-2.964c-3.527,0.202-7.077-0.013-10.615,0.078c-1.875,0.048-2.481-0.7-2.524-2.537
	c-0.129-5.576-0.192-5.574,5.234-5.574c10.81,0,21.62-0.005,32.43,0.003c3.465,0.002,3.35,0.022,3.505,4.177
	c0.097,2.588-0.213,4.216-3.461,3.965c-3.424-0.264-6.889,0.05-10.326-0.102c-1.879-0.083-2.394,0.479-2.375,2.362
	c0.095,9.756,0.044,19.514,0.044,29.271C407.549,744.432,407.543,744.432,407.538,744.432z"/>
<path fill-rule="evenodd" clip-rule="evenodd" fill="#2A2A2A" d="M441.477,740.394c0-10.801,0.077-21.604-0.055-32.403
	c-0.032-2.587,0.862-3.331,3.315-3.274c6.404,0.148,5.672-0.595,5.673,5.697c0.003,20.934-0.06,41.868,0.021,62.801
	c0.01,2.616-0.697,3.518-3.395,3.436c-6.285-0.19-5.53,0.397-5.542-5.572c-0.02-10.228-0.005-20.456-0.005-30.684
	C441.486,740.394,441.481,740.394,441.477,740.394z"/>
<path fill-rule="evenodd" clip-rule="evenodd" fill="#2A2A2A" d="M513.825,740.538c-0.003-10.901,0.058-21.803-0.05-32.702
	c-0.023-2.437,0.852-3.166,3.175-3.116c6.628,0.141,5.798-0.627,5.803,5.854c0.015,20.846-0.052,41.692,0.046,62.537
	c0.014,2.768-0.783,3.654-3.57,3.572c-6.091-0.181-5.392,0.271-5.397-5.449C513.82,761.002,513.828,750.771,513.825,740.538z"/>
</svg>
